# Blender v2.81 (sub 16) OBJ File: 'classroom.blend'
# www.blender.org
mtllib testModel.mtl
o Plane
v -1.026198 -0.921043 -0.007000
v 0.930348 -0.911189 -0.017426
v -1.026198 0.961512 0.000481
v 0.930348 0.971366 -0.009946
v -1.121830 -1.048706 -0.052633
v 1.034971 -1.048706 -0.052633
v -1.121830 1.108079 -0.044063
v 1.034971 1.108079 -0.044063
v -1.084912 1.019931 0.015026
v -1.084912 -0.980053 0.007079
v 0.989062 -0.969608 -0.003973
v 0.989062 1.030376 0.003973
v -1.058720 0.993871 0.052352
v -1.058720 -0.953730 0.044614
v 0.962870 -0.943548 0.033840
v 0.962870 1.004053 0.041579
vt 0.028310 0.029358
vt 0.028310 0.970642
vt 0.971690 0.970642
vt 0.971690 0.029358
vt 0.000000 0.000000
vt 1.000000 0.000000
vt 1.000000 1.000000
vt 0.000000 1.000000
vt 1.000000 1.000000
vt 0.000000 1.000000
vt 0.000000 0.000000
vt 1.000000 0.000000
vt 0.012629 0.986904
vt 0.012629 0.013096
vt 0.987371 0.013096
vt 0.987371 0.986904
vn -0.0053 0.0040 -1.0000
vn 0.0000 -0.0040 1.0000
vn -0.0009 -0.5425 -0.8400
vn -0.0036 0.5913 -0.8064
vn -0.7251 0.0027 -0.6886
vn 0.8495 0.0021 -0.5276
vn 0.8193 0.0023 -0.5733
vn -0.0072 0.8211 -0.5708
vn -0.8213 0.0023 -0.5704
vn 0.0011 -0.8196 -0.5730
vn -0.8466 0.0021 -0.5321
vn 0.0014 -0.8452 -0.5344
vn 0.8450 0.0021 -0.5347
vn -0.0071 0.8464 -0.5325
usemtl None
s off
f 1/1/1 3/2/1 4/3/1 2/4/1
f 5/5/2 6/6/2 8/7/2 7/8/2
f 12/9/3 9/10/3 7/8/3 8/7/3
f 10/11/4 11/12/4 6/6/4 5/5/4
f 11/12/5 12/9/5 8/7/5 6/6/5
f 9/10/6 10/11/6 5/5/6 7/8/6
f 13/13/7 14/14/7 10/11/7 9/10/7
f 14/14/8 15/15/8 11/12/8 10/11/8
f 15/15/9 16/16/9 12/9/9 11/12/9
f 16/16/10 13/13/10 9/10/10 12/9/10
f 3/2/11 1/1/11 14/14/11 13/13/11
f 1/1/12 2/4/12 15/15/12 14/14/12
f 2/4/13 4/3/13 16/16/13 15/15/13
f 4/3/14 3/2/14 13/13/14 16/16/14
